<svg width="16" height="17" viewBox="0 0 16 17" fill="none" xmlns="http://www.w3.org/2000/svg">
<path d="M8.00179 4.43058C5.73036 4.43058 3.89822 6.24746 3.89822 8.49996C3.89822 10.7525 5.73036 12.5693 8.00179 12.5693C10.2732 12.5693 12.1054 10.7525 12.1054 8.49996C12.1054 6.24746 10.2732 4.43058 8.00179 4.43058ZM8.00179 11.1456C6.53394 11.1456 5.33394 9.95912 5.33394 8.49996C5.33394 7.04079 6.53036 5.85433 8.00179 5.85433C9.47322 5.85433 10.6697 7.04079 10.6697 8.49996C10.6697 9.95912 9.46965 11.1456 8.00179 11.1456ZM13.2304 4.26412C13.2304 4.79183 12.8018 5.21329 12.2732 5.21329C11.7411 5.21329 11.3161 4.78829 11.3161 4.26412C11.3161 3.73995 11.7447 3.31495 12.2732 3.31495C12.8018 3.31495 13.2304 3.73995 13.2304 4.26412ZM15.9482 5.22746C15.8875 3.956 15.5946 2.82975 14.6554 1.90183C13.7197 0.973913 12.5839 0.683496 11.3018 0.619746C9.98036 0.545371 6.01965 0.545371 4.69822 0.619746C3.41965 0.679954 2.28394 0.970371 1.34465 1.89829C0.405366 2.8262 0.11608 3.95245 0.0517944 5.22391C-0.0232056 6.53433 -0.0232056 10.462 0.0517944 11.7725C0.112509 13.0439 0.405366 14.1702 1.34465 15.0981C2.28394 16.026 3.41608 16.3164 4.69822 16.3802C6.01965 16.4545 9.98036 16.4545 11.3018 16.3802C12.5839 16.32 13.7197 16.0295 14.6554 15.0981C15.5911 14.1702 15.8839 13.0439 15.9482 11.7725C16.0232 10.462 16.0232 6.53787 15.9482 5.22746ZM14.2411 13.1785C13.9625 13.8727 13.4232 14.4075 12.7197 14.6872C11.6661 15.1016 9.16608 15.006 8.00179 15.006C6.83751 15.006 4.33394 15.0981 3.28394 14.6872C2.58394 14.411 2.04465 13.8762 1.76251 13.1785C1.34465 12.1337 1.44108 9.65454 1.44108 8.49996C1.44108 7.34537 1.34822 4.86266 1.76251 3.82141C2.04108 3.12725 2.58037 2.59245 3.28394 2.31266C4.33751 1.89829 6.83751 1.99391 8.00179 1.99391C9.16608 1.99391 11.6697 1.90183 12.7197 2.31266C13.4197 2.58891 13.9589 3.1237 14.2411 3.82141C14.6589 4.8662 14.5625 7.34537 14.5625 8.49996C14.5625 9.65454 14.6589 12.1372 14.2411 13.1785Z" fill="white" fill-opacity="0.5"/>
</svg>
